<svg width="500" height="500" xmlns="http://www.w3.org/2000/svg">
  <rect x="20" y="20" width="80" height="50" stroke="red" fill="none"/>
  <rect x="110" y="40" width="70" height="60" stroke="red" fill="none"/>
  <rect x="40" y="80" width="50" height="30" stroke="red" fill="none"/>
  <rect x="190" y="90" width="60" height="70" stroke="red" fill="none"/>
  <rect x="80" y="170" width="40" height="30" stroke="red" fill="none"/>
  <rect x="140" y="200" width="50" height="50" stroke="red" fill="none"/>
  <rect x="210" y="250" width="100" height="60" stroke="red" fill="none"/>
  <rect x="320" y="80" width="120" height="90" stroke="red" fill="none"/>
  <rect x="420" y="190" width="70" height="70" stroke="red" fill="none"/>
  <rect x="400" y="280" width="90" height="50" stroke="red" fill="none"/>
  <rect x="350" y="350" width="100" height="60" stroke="red" fill="none"/>
  <rect x="250" y="350" width="60" height="100" stroke="red" fill="none"/>
  <rect x="150" y="400" width="70" height="80" stroke="red" fill="none"/>
  <rect x="60" y="450" width="80" height="40" stroke="red" fill="none"/>
  <rect x="20" y="370" width="30" height="60" stroke="red" fill="none"/>
</svg>
