<svg width="900" height="900" xmlns="http://www.w3.org/2000/svg">
  <rect x="10" y="10" width="90" height="50" stroke="red" fill="none"/>
  <rect x="110" y="20" width="80" height="40" stroke="red" fill="none"/>
  <rect x="210" y="30" width="70" height="30" stroke="red" fill="none"/>
  <rect x="310" y="40" width="60" height="20" stroke="red" fill="none"/>
  <rect x="410" y="50" width="50" height="10" stroke="red" fill="none"/>
  <rect x="10" y="70" width="40" height="80" stroke="red" fill="none"/>
  <rect x="60" y="160" width="30" height="70" stroke="red" fill="none"/>
  <rect x="100" y="240" width="20" height="60" stroke="red" fill="none"/>
  <rect x="130" y="310" width="10" height="50" stroke="red" fill="none"/>
  <rect x="150" y="370" width="90" height="120" stroke="red" fill="none"/>
  <rect x="250" y="380" width="80" height="110" stroke="red" fill="none"/>
  <rect x="340" y="390" width="70" height="100" stroke="red" fill="none"/>
  <rect x="420" y="400" width="60" height="90" stroke="red" fill="none"/>
  <rect x="480" y="410" width="50" height="80" stroke="red" fill="none"/>
  <rect x="10" y="500" width="40" height="70" stroke="red" fill="none"/>
  <rect x="60" y="580" width="30" height="60" stroke="red" fill="none"/>
  <rect x="100" y="650" width="20" height="50" stroke="red" fill="none"/>
  <rect x="130" y="710" width="10" height="40" stroke="red" fill="none"/>
  <rect x="150" y="760" width="90" height="30" stroke="red" fill="none"/>
  <rect x="250" y="800" width="80" height="20" stroke="red" fill="none"/>
</svg>
